<svg width="25" height="31" viewBox="0 0 25 31" fill="none" xmlns="http://www.w3.org/2000/svg">
<path d="M2.2915 14.0417H22.7082M8.12484 24.25L3.74984 28.625M16.8748 24.25L21.2498 28.625M12.4998 14.0417V3.83333M6.6665 19.875H6.68109M18.3332 19.875H18.3478M6.95817 24.25H18.0415C19.675 24.25 20.4918 24.25 21.1157 23.9321C21.6644 23.6525 22.1107 23.2063 22.3903 22.6575C22.7082 22.0336 22.7082 21.2168 22.7082 19.5833V7.04167C22.7082 5.40819 22.7082 4.59143 22.3903 3.96753C22.1107 3.41871 21.6644 2.97252 21.1157 2.6929C20.4918 2.375 19.675 2.375 18.0415 2.375H6.95817C5.32469 2.375 4.50794 2.375 3.88403 2.6929C3.33522 2.97252 2.88903 3.41871 2.60941 3.96753C2.2915 4.59143 2.2915 5.40817 2.2915 7.04167V19.5833C2.2915 21.2168 2.2915 22.0336 2.60941 22.6575C2.88903 23.2063 3.33522 23.6525 3.88403 23.9321C4.50794 24.25 5.32468 24.25 6.95817 24.25Z" stroke="black" stroke-width="2.91667" stroke-linecap="round" stroke-linejoin="round"/>
</svg>
