<svg width="29" height="30" viewBox="0 0 29 30" fill="none" xmlns="http://www.w3.org/2000/svg">
<path d="M12.401 3.85411H6.75477C5.09045 3.85411 4.25828 3.85411 3.62259 4.17801C3.06342 4.46293 2.6088 4.91754 2.3239 5.4767C2 6.1124 2 6.94456 2 8.60887V22.8732C2 24.5375 2 25.3697 2.3239 26.0054C2.6088 26.5645 3.06342 27.0192 3.62259 27.304C4.25828 27.6279 5.09045 27.6279 6.75477 27.6279H21.0191C22.6834 27.6279 23.5156 27.6279 24.1513 27.304C24.7104 27.0192 25.1651 26.5645 25.4499 26.0054C25.7738 25.3697 25.7738 24.5375 25.7738 22.8732V16.484M19.0874 6.0829L23.2901 10.2856M12.0485 13.1219L21.9269 3.24345C23.0874 2.08291 24.9691 2.08291 26.1295 3.24345C27.2902 4.40398 27.2902 6.28558 26.1295 7.44611L15.9335 17.642C14.8019 18.7738 14.2361 19.3396 13.5915 19.7896C13.0195 20.1891 12.4024 20.5199 11.7532 20.7754C11.0217 21.0634 10.2373 21.2216 8.66845 21.5383L7.94346 21.6845L8.01396 21.1909C8.26345 19.4445 8.38821 18.5713 8.67196 17.756C8.92376 17.0325 9.26773 16.3447 9.69538 15.7092C10.1773 14.993 10.8011 14.3693 12.0485 13.1219Z" stroke="black" stroke-width="2.97173" stroke-linecap="round" stroke-linejoin="round"/>
</svg>
