<svg width="29" height="31" viewBox="0 0 29 31" fill="none" xmlns="http://www.w3.org/2000/svg">
<path d="M6.44982 5.73224C7.00541 5.73224 7.45623 5.28188 7.45623 4.72624V1.50594C7.45623 0.950351 7.00541 0.5 6.44982 0.5C5.89424 0.5 5.44336 0.950351 5.44336 1.50599V4.7263C5.44336 5.28188 5.89424 5.73224 6.44982 5.73224Z" fill="black"/>
<path d="M14.4996 5.73224C15.0552 5.73224 15.5061 5.28188 15.5061 4.72624V1.50594C15.506 0.950351 15.0552 0.5 14.4996 0.5C13.944 0.5 13.4937 0.950351 13.4937 1.50599V4.7263C13.4937 5.28188 13.944 5.73224 14.4996 5.73224Z" fill="black"/>
<path d="M24.5195 3.13086H24.3605V4.72631C24.3605 5.72462 23.5483 6.5372 22.5491 6.5372C21.5508 6.5372 20.7378 5.72457 20.7378 4.72631V3.13086H16.3109V4.72631C16.3109 5.72462 15.4982 6.5372 14.4995 6.5372C13.5012 6.5372 12.6886 5.72457 12.6886 4.72631V3.13086H8.26125V4.72631C8.26125 5.72462 7.44862 6.5372 6.44989 6.5372C5.45157 6.5372 4.63853 5.72457 4.63853 4.72631V3.13086H4.48044C2.30814 3.13086 0.546875 4.89207 0.546875 7.06443V26.5664C0.546875 28.7387 2.30808 30.5 4.48044 30.5H24.5196C26.6914 30.5 28.4531 28.7388 28.4531 26.5664V7.06443C28.4531 4.89213 26.6914 3.13086 24.5195 3.13086ZM26.8423 26.2678C26.8423 27.716 25.6687 28.8901 24.2205 28.8901H4.77944C3.33124 28.8901 2.15679 27.716 2.15679 26.2678V11.6611H26.8423V26.2678Z" fill="black"/>
<path d="M22.5494 5.73224C23.1051 5.73224 23.5558 5.28188 23.5558 4.72624V1.50594C23.5558 0.950351 23.105 0.5 22.5494 0.5C21.9938 0.5 21.543 0.950351 21.543 1.50599V4.7263C21.543 5.28188 21.9938 5.73224 22.5494 5.73224Z" fill="black"/>
</svg>
