<svg width="35" height="35" viewBox="0 0 35 35" fill="none" xmlns="http://www.w3.org/2000/svg">
<path d="M29.6674 29.6677L29.6675 29.6676C30.305 29.0302 30.6798 28.1618 30.8785 26.6842C31.081 25.1778 31.0832 23.1948 31.0832 20.4167C31.0832 17.6386 31.081 15.6556 30.8785 14.1492C30.6798 12.6716 30.305 11.8032 29.6675 11.1657C28.7423 10.2405 27.3518 9.88415 24.4 9.78716L22.226 9.7527C21.6597 9.75 21.0584 9.75 20.4165 9.75H14.5832C13.9414 9.75 13.34 9.75 12.7736 9.7527L10.5997 9.78716C7.64796 9.88415 6.2573 10.2405 5.33215 11.1656C5.33215 11.1656 5.33215 11.1656 5.33215 11.1656M29.6674 29.6677L30.3746 30.3747C28.6661 32.0833 25.9162 32.0833 20.4165 32.0833H14.5831C9.08345 32.0833 6.33358 32.0833 4.62504 30.3747C2.9165 28.6663 2.9165 25.9163 2.9165 20.4167C2.9165 14.917 2.9165 12.1671 4.62504 10.4585L5.33215 11.1656M29.6674 29.6677C29.03 30.3052 28.1616 30.68 26.684 30.8787C25.1776 31.0812 23.1946 31.0833 20.4165 31.0833H14.5831C11.805 31.0833 9.82203 31.0812 8.31566 30.8787C6.83806 30.68 5.96966 30.3052 5.33216 29.6677L5.33213 29.6676C4.69465 29.0302 4.31981 28.1618 4.12115 26.6842C3.91863 25.1778 3.9165 23.1948 3.9165 20.4167C3.9165 17.6386 3.91863 15.6556 4.12115 14.1492C4.31981 12.6716 4.69465 11.8032 5.33215 11.1656M29.6674 29.6677L5.33215 11.1656" stroke="black" stroke-width="2"/>
<path d="M16.6507 15.5686L17.4064 15.3782V14.5989V14.584C17.4064 14.5322 17.4484 14.4902 17.5002 14.4902C17.5519 14.4902 17.5939 14.5322 17.5939 14.584V14.5989V15.3782L18.3496 15.5686C19.6291 15.8909 20.5106 16.8358 20.5106 17.9867C20.5106 18.0385 20.4686 18.0805 20.4168 18.0805C20.3651 18.0805 20.3231 18.0385 20.3231 17.9867C20.3231 16.743 19.1131 15.65 17.5002 15.65C15.8872 15.65 14.6772 16.743 14.6772 17.9867C14.6772 19.2305 15.8872 20.3236 17.5002 20.3236C19.1617 20.3236 20.5106 21.4513 20.5106 22.8479C20.5106 23.9989 19.6291 24.9437 18.3496 25.2661L17.5939 25.4565V26.2358V26.2507C17.5939 26.3024 17.5519 26.3444 17.5002 26.3444C17.4484 26.3444 17.4064 26.3024 17.4064 26.2507V26.2358V25.4565L16.6507 25.2661C15.3712 24.9437 14.4897 23.9989 14.4897 22.8479C14.4897 22.7962 14.5317 22.7542 14.5835 22.7542C14.6353 22.7542 14.6772 22.7962 14.6772 22.8479C14.6772 24.0916 15.8872 25.1846 17.5002 25.1846C19.1131 25.1846 20.3231 24.0916 20.3231 22.8479C20.3231 21.6041 19.1132 20.5111 17.5002 20.5111C15.8387 20.5111 14.4897 19.3833 14.4897 17.9867C14.4897 16.8358 15.3712 15.8909 16.6507 15.5686Z" stroke="black" stroke-width="2"/>
<path d="M17.5761 2.82227H17.576H17.4244H17.4243C16.089 2.82222 15.0734 2.82422 14.2873 2.92988L17.5761 2.82227ZM17.5761 2.82227C18.9113 2.82222 19.9271 2.82422 20.713 2.92988C21.5182 3.03815 22.0983 3.2568 22.5455 3.70403L23.2526 2.9969L22.5455 3.70403C22.9927 4.15118 23.2113 4.73122 23.3195 5.53648L23.3196 5.53665C23.3736 5.93792 23.4015 6.81361 23.4151 7.77064M17.5761 2.82227L23.4151 7.77064M23.4151 7.77064L23.2281 7.76768C23.2161 6.85754 23.1906 5.98347 23.1337 5.56129M23.4151 7.77064L23.1338 5.56157C23.1338 5.56147 23.1337 5.56138 23.1337 5.56129M23.1337 5.56129C23.0283 4.77659 22.8193 4.24293 22.4129 3.83664L23.1337 5.56129ZM11.5853 7.77064C11.5989 6.81361 11.6267 5.93782 11.6807 5.53647C11.789 4.73129 12.0076 4.15121 12.4548 3.704C12.902 3.2568 13.4821 3.03815 14.2873 2.92989L11.5853 7.77064ZM11.5853 7.77064L11.7723 7.76768C11.7843 6.85758 11.8098 5.9836 11.8665 5.56148L11.5853 7.77064ZM22.4126 3.83637C22.0064 3.43025 21.4729 3.22125 20.6881 3.11572L20.6881 3.11572C19.9012 3.00995 18.877 3.00977 17.5002 3.00977C16.1235 3.00977 15.099 3.00995 14.3123 3.11572L14.3123 3.11572C13.5273 3.22126 12.9936 3.43032 12.5874 3.83659L22.4126 3.83637ZM12.5874 3.83661C12.1811 4.24286 11.9721 4.77641 11.8665 5.56146L12.5874 3.83661Z" stroke="black" stroke-width="2"/>
</svg>
