<svg width="33" height="31" viewBox="0 0 33 31" fill="none" xmlns="http://www.w3.org/2000/svg">
<path d="M28.9686 27.9878V28.6441H29.6248H31.0832C31.3186 28.6441 31.5207 28.8461 31.5207 29.0816C31.5207 29.3171 31.3186 29.5191 31.0832 29.5191H1.9165C1.68102 29.5191 1.479 29.3171 1.479 29.0816C1.479 28.8461 1.68102 28.6441 1.9165 28.6441H3.30192H3.95527L3.95816 27.9907L4.03109 11.5407V11.5378C4.03109 10.8498 4.34661 10.1959 4.89992 9.76676L4.90045 9.76635L15.1088 1.83302L15.1088 1.83304L15.1134 1.82937C15.9247 1.18708 17.0749 1.18708 17.8862 1.82937L17.8862 1.8294L17.8912 1.83327L19.8454 3.34994L20.023 3.48776H20.2478H25.2207C25.6689 3.48776 26.0228 3.84418 26.0227 4.27526L26.0228 4.28062L26.0519 7.85353L26.0545 8.17049L26.3044 8.36551L28.0981 9.76551L28.0998 9.76676C28.6517 10.1948 28.9686 10.848 28.9686 11.5523V27.9878ZM20.1457 28.6441H20.8019V27.9878V23.9773C20.8019 22.4044 19.531 21.1335 17.9582 21.1335H15.0415C13.4686 21.1335 12.1978 22.4044 12.1978 23.9773V27.9878V28.6441H12.854H20.1457ZM7.82275 13.4044V15.5919C7.82275 16.7564 8.77282 17.7064 9.93734 17.7064H12.854C14.0185 17.7064 14.9686 16.7564 14.9686 15.5919V13.4044C14.9686 12.2398 14.0185 11.2898 12.854 11.2898H9.93734C8.77282 11.2898 7.82275 12.2398 7.82275 13.4044ZM23.0623 17.7064C24.2269 17.7064 25.1769 16.7564 25.1769 15.5919V13.4044C25.1769 12.2398 24.2269 11.2898 23.0623 11.2898H20.1457C18.9811 11.2898 18.0311 12.2398 18.0311 13.4044V15.5919C18.0311 16.7564 18.9811 17.7064 20.1457 17.7064H23.0623Z" stroke="black" stroke-width="1.3125"/>
</svg>
