<svg width="27" height="27" viewBox="0 0 27 27" fill="none" xmlns="http://www.w3.org/2000/svg">
<path d="M24.4377 7.30176H22.396C22.9793 6.60176 23.3439 5.72676 23.3439 4.74967C23.3439 2.53301 21.5502 0.739258 19.3335 0.739258C16.8835 0.739258 14.7252 2.03717 13.5002 3.96217C12.2752 2.03717 10.1168 0.739258 7.66683 0.739258C5.45016 0.739258 3.65641 2.53301 3.65641 4.74967C3.65641 5.72676 4.021 6.60176 4.60433 7.30176H2.56266C1.55641 7.30176 0.739746 8.11842 0.739746 9.12467V12.7705C0.739746 13.6455 1.36683 14.3455 2.19808 14.5205V24.4372C2.19808 25.4434 3.01475 26.2601 4.021 26.2601H22.9793C23.9856 26.2601 24.8022 25.4434 24.8022 24.4372V14.5205C25.6335 14.3455 26.2606 13.6455 26.2606 12.7705V9.12467C26.2606 8.11842 25.4439 7.30176 24.4377 7.30176ZM24.0731 12.4059H14.5939V9.48926H24.0731V12.4059ZM19.3335 2.92676C20.3397 2.92676 21.1564 3.74342 21.1564 4.74967C21.1564 5.75592 20.3397 6.57259 19.3335 6.57259H14.7252C15.221 4.48717 17.1022 2.92676 19.3335 2.92676ZM7.66683 2.92676C9.89808 2.92676 11.7793 4.48717 12.2752 6.57259H7.66683C6.66058 6.57259 5.84391 5.75592 5.84391 4.74967C5.84391 3.74342 6.66058 2.92676 7.66683 2.92676ZM2.92725 9.48926H12.4064V12.4059H2.92725V9.48926ZM4.38558 14.5934H12.4064V24.0726H4.38558V14.5934ZM22.6147 24.0726H14.5939V14.5934H22.6147V24.0726Z" fill="black"/>
</svg>
