<svg width="35" height="31" viewBox="0 0 35 31" fill="none" xmlns="http://www.w3.org/2000/svg">
<path d="M19.9467 24.7082L19.1221 24.0117C18.5176 24.7316 18.2196 25.5776 18.0732 26.3445L19.1328 26.5453C19.2557 25.9001 19.5024 25.2336 19.9467 24.7082Z" fill="black"/>
<path d="M22.8083 23.0728L22.1728 22.2012C21.8801 22.4148 21.5244 22.5964 21.0876 22.7331C20.7361 22.842 20.4189 22.983 20.1348 23.1518L20.687 24.0789C20.8953 23.955 21.1334 23.8471 21.4058 23.7628C21.9485 23.5962 22.4152 23.359 22.8083 23.0728Z" fill="black"/>
<path d="M23.4642 19.6309C23.4365 20.2664 23.257 20.9447 22.8564 21.5086L23.7377 22.1302C24.2824 21.3569 24.5067 20.4767 24.542 19.6757L23.4642 19.6309Z" fill="black"/>
<path d="M11.4436 27.0291C11.2855 26.1959 10.9501 25.476 10.524 24.8672L9.64062 25.4856V25.4867C9.99097 25.9866 10.2559 26.5591 10.384 27.2299L11.4436 27.0291Z" fill="black"/>
<path d="M7.94015 22.623L7.41357 23.5641C7.94657 23.8632 8.51696 24.2541 9.01257 24.7454L9.77197 23.9785C9.18559 23.3996 8.53727 22.9574 7.94015 22.623Z" fill="black"/>
<path d="M34.9869 30.6656L34.3919 29.3582L28.2022 15.7227H19.5707C19.4543 15.9277 19.3486 16.1221 19.2257 16.3315C18.8936 16.8997 18.5859 17.4146 18.3008 17.8802H23.0763L23.0677 17.8888C23.1478 17.9657 23.2963 18.2455 23.3764 18.613L24.4275 18.3737C24.3858 18.1985 24.3346 18.0361 24.2769 17.8802H26.8126L31.7356 28.7248H18.1672L19.0698 28.5849L19.0687 28.5763C19.0613 28.5186 19.0206 28.211 19.0206 27.7752C19.0206 27.7197 19.0217 27.6631 19.0228 27.6043L17.945 27.5798C17.9429 27.6471 17.9429 27.7112 17.9429 27.7752C17.9429 28.2741 17.9877 28.6297 18.0006 28.7248H11.5129C11.53 28.5486 11.5417 28.3756 11.5438 28.2068L10.4651 28.1918C10.4629 28.3627 10.4491 28.5422 10.4288 28.7248H3.2649L5.91171 22.894C6.06982 22.9474 6.27169 23.0221 6.50562 23.1204L6.92753 22.1292C6.71179 22.0374 6.52161 21.9648 6.35926 21.9071L8.18787 17.8803H10.8432C10.5591 17.4145 10.2515 16.8997 9.91825 16.3315C9.79541 16.1221 9.68966 15.9278 9.57324 15.7227H6.79717L0.0135259 30.6656C-0.00787062 30.7137 -0.00356398 30.7681 0.0241899 30.813C0.0530376 30.8557 0.101094 30.8813 0.153458 30.8813H34.8469C34.8993 30.8813 34.9474 30.8557 34.9762 30.813C35.004 30.7681 35.0082 30.7137 34.9869 30.6656Z" fill="black"/>
<path d="M14.5718 21.287C14.9136 21.287 21.7602 11.2788 21.7602 7.30754C21.7602 3.33846 18.542 0.119141 14.5718 0.119141C10.6005 0.119141 7.38232 3.33846 7.38232 7.30754C7.38232 11.2788 14.23 21.287 14.5718 21.287ZM11.8225 7.30754C11.8225 5.78866 13.054 4.55819 14.5718 4.55819C16.0907 4.55819 17.3222 5.78866 17.3222 7.30754C17.3222 8.82642 16.0906 10.0579 14.5718 10.0579C13.054 10.058 11.8225 8.82642 11.8225 7.30754Z" fill="black"/>
</svg>
