<svg width="31" height="23" viewBox="0 0 31 23" fill="none" xmlns="http://www.w3.org/2000/svg">
<path d="M28.7155 9.36597L29.7412 9.28333C29.8867 9.27143 30.0216 9.20235 30.1164 9.09121C30.2111 8.98007 30.2579 8.83593 30.2467 8.69033L30.1212 7.15437C30.1156 7.08233 30.0958 7.01213 30.063 6.94776C30.0301 6.88339 29.9849 6.82612 29.9299 6.77925C29.8749 6.73238 29.8112 6.69684 29.7425 6.67463C29.6737 6.65242 29.6012 6.64399 29.5292 6.64984H27.2408L24.7629 1.08539C24.5791 0.728417 24.2929 0.434455 23.9409 0.24117C23.589 0.0478857 23.1874 -0.0359155 22.7875 0.000497183H8.20562C7.80531 -0.0353964 7.40336 0.0485911 7.05092 0.241779C6.69847 0.434966 6.41145 0.728619 6.22637 1.08539L3.75134 6.64984H1.46295C1.3175 6.63855 1.1735 6.68528 1.06239 6.77981C0.951281 6.87435 0.882095 7.009 0.869948 7.15437L0.746488 8.69033C0.734933 8.83584 0.781564 8.97998 0.876148 9.09115C0.970732 9.20232 1.10554 9.27143 1.25102 9.28333L2.27661 9.36597C1.10921 11.0326 0.486711 13.02 0.494705 15.0548L0.726078 17.9955C0.745601 18.272 0.836467 18.5387 0.989809 18.7695C1.14315 19.0004 1.35372 19.1876 1.60099 19.3128V20.8682C1.6982 22.9923 2.36702 22.9923 3.85535 22.9923C5.34368 22.9923 6.11069 22.9923 6.21082 20.8682V19.4907H15.4956H24.6997V20.8662C24.7969 22.9903 25.4648 22.9903 26.9541 22.9903C28.4434 22.9903 29.2094 22.9903 29.3085 20.8662V19.3108C29.5652 19.1891 29.7869 19.0046 29.9531 18.7743C30.1193 18.544 30.2246 18.2755 30.2593 17.9936L30.4945 15.0529C30.503 13.019 29.8815 11.0324 28.7155 9.36597ZM10.1897 16.0445C10.1895 16.1904 10.1314 16.3303 10.0283 16.4336C9.92524 16.5369 9.78545 16.5952 9.63951 16.5957H4.21795C4.14549 16.5958 4.07371 16.5816 4.00672 16.554C3.93974 16.5264 3.87886 16.4858 3.82757 16.4346C3.77629 16.3834 3.7356 16.3226 3.70784 16.2556C3.68008 16.1887 3.66578 16.1169 3.66578 16.0445V14.0613C3.66553 13.9888 3.67964 13.9169 3.70731 13.8499C3.73498 13.7828 3.77566 13.7219 3.82699 13.6707C3.87833 13.6194 3.93932 13.5788 4.00642 13.5513C4.07352 13.5237 4.14542 13.5098 4.21795 13.5101L9.63951 13.9505C9.78528 13.951 9.92493 14.0092 10.028 14.1122C10.1311 14.2153 10.1892 14.355 10.1897 14.5007V16.0445ZM5.42631 8.28691L8.09188 2.1557H22.8993L25.5639 8.28691H5.42825H5.42631ZM27.3283 16.0445C27.3283 16.1907 27.2703 16.3309 27.1669 16.4342C27.0635 16.5376 26.9233 16.5957 26.7771 16.5957H21.3556C21.2095 16.5954 21.0694 16.5373 20.9661 16.4339C20.8628 16.3306 20.8046 16.1906 20.8044 16.0445V14.5007C20.8051 14.3549 20.8635 14.2152 20.9667 14.1122C21.07 14.0091 21.2097 13.951 21.3556 13.9505L26.7771 13.5101C26.8496 13.5099 26.9214 13.524 26.9884 13.5516C27.0554 13.5792 27.1162 13.6198 27.1675 13.671C27.2187 13.7223 27.2593 13.7831 27.2869 13.8501C27.3145 13.9171 27.3286 13.9889 27.3283 14.0613V16.0445Z" fill="black"/>
</svg>
