<svg width="17" height="18" viewBox="0 0 17 18" fill="none" xmlns="http://www.w3.org/2000/svg">
<path d="M15.6923 3.11538H11.7692V2.46154C11.7692 1.38008 10.8892 0.5 9.80769 0.5H7.19231C6.11085 0.5 5.23077 1.38008 5.23077 2.46154V3.11538H1.30769C0.5865 3.11538 0 3.70188 0 4.42308V5.07692C0 5.43785 0.292923 5.73077 0.653846 5.73077H16.3462C16.7071 5.73077 17 5.43785 17 5.07692V4.42308C17 3.70188 16.4135 3.11538 15.6923 3.11538ZM6.53846 2.46154C6.53846 2.10127 6.83204 1.80769 7.19231 1.80769H9.80769C10.168 1.80769 10.4615 2.10127 10.4615 2.46154V3.11538H6.53846V2.46154Z" fill="black"/>
<path d="M1.96143 5.73047V15.5382C1.96143 16.6196 2.8415 17.4997 3.92296 17.4997H13.0768C14.1583 17.4997 15.0383 16.6196 15.0383 15.5382V5.73047H1.96143ZM5.8845 14.2305C5.8845 14.5914 5.59158 14.8843 5.23066 14.8843C4.86973 14.8843 4.57681 14.5914 4.57681 14.2305V8.34585C4.57681 7.98493 4.86973 7.69201 5.23066 7.69201C5.59158 7.69201 5.8845 7.98493 5.8845 8.34585V14.2305ZM9.15373 14.2305C9.15373 14.5914 8.86081 14.8843 8.49989 14.8843C8.13896 14.8843 7.84604 14.5914 7.84604 14.2305V8.34585C7.84604 7.98493 8.13896 7.69201 8.49989 7.69201C8.86081 7.69201 9.15373 7.98493 9.15373 8.34585V14.2305ZM12.423 14.2305C12.423 14.5914 12.13 14.8843 11.7691 14.8843C11.4082 14.8843 11.1153 14.5914 11.1153 14.2305V8.34585C11.1153 7.98493 11.4082 7.69201 11.7691 7.69201C12.13 7.69201 12.423 7.98493 12.423 8.34585V14.2305Z" fill="black"/>
</svg>
