<svg width="31" height="31" viewBox="0 0 31 31" fill="none" xmlns="http://www.w3.org/2000/svg">
<path d="M27.8959 2.40584C28.2021 2.40584 28.4176 2.46272 28.5299 2.50593C28.6647 2.86473 28.8455 4.15057 27.5164 5.48058L20.7362 12.2603L20.7851 13.1014C20.8879 14.8616 21.0786 18.0162 21.243 20.7203C21.3881 23.1272 21.5257 25.4002 21.5346 25.5937C21.5393 25.7267 21.5412 25.7581 21.4172 25.9075C21.1402 26.2442 20.6231 26.8148 20.1873 27.2877C19.5115 25.467 18.0913 21.6211 17.307 19.4683L16.2991 16.6984L14.2144 18.7831L10.3808 22.4693L9.84678 23.0023L9.83034 23.7561C9.81766 24.3577 9.82048 25.4374 9.82189 26.3893C9.82376 27.0525 9.82567 27.655 9.82098 27.987C9.81252 28.0025 9.94919 28.0209 9.93651 28.0429C9.85479 27.9119 9.76697 27.7705 9.67398 27.6235C8.90096 26.3907 7.83112 24.6855 7.50472 24.1534L7.26615 23.7636L6.87447 23.5269C5.45006 22.6665 3.87207 21.6732 2.90932 21.0528C2.94266 21.0336 2.96987 21.1355 2.99194 21.1237H3.0544C3.35732 21.1237 3.85795 21.1303 4.41917 21.1383C5.15322 21.1481 5.98588 21.1604 6.62318 21.1604C6.86739 21.1604 7.08437 21.1585 7.25907 21.1547L8.01284 21.1373L8.54588 20.6043L12.2368 16.7969L14.3144 14.7202L11.5572 13.7058C9.48518 12.9436 5.51627 11.4614 3.6598 10.764C4.13598 10.3253 4.70988 9.80451 5.04473 9.5274C5.13819 9.45037 5.21101 9.41095 5.26123 9.41095L5.32745 9.41283C5.53456 9.4227 8.10677 9.59083 10.5935 9.75332C13.2333 9.92568 16.2127 10.1201 17.9066 10.2277L18.7534 10.2807L25.5345 3.49915C26.4869 2.54814 27.4224 2.40584 27.8959 2.40584ZM27.8959 0.527373C26.7861 0.527373 25.4238 0.953746 24.207 2.17105L18.0251 8.35242C14.5432 8.13216 5.62573 7.54229 5.40453 7.53619C5.35682 7.53377 5.30906 7.53251 5.26129 7.5324C4.96025 7.5324 4.44036 7.59017 3.84862 8.07906C3.15403 8.65346 1.70566 10.0154 1.70566 10.0154C1.35625 10.3658 1.1792 10.7997 1.22147 11.2078C1.2473 11.4544 1.38114 11.9038 1.98651 12.1405C2.35423 12.2847 8.20639 14.4742 10.9087 15.4684L7.21783 19.2758C7.05437 19.2795 6.85195 19.2814 6.62324 19.2814C5.49799 19.2814 3.75328 19.2448 3.05396 19.2448C2.96145 19.2448 2.88724 19.2448 2.83461 19.2466C2.62187 19.2532 2.18135 19.1485 1.01946 20.1197L0.936807 20.1967C0.588336 20.5452 0.506619 20.8927 0.499105 21.1224C0.49159 21.3591 0.554991 21.7 0.897357 21.9743C1.10306 22.1405 3.74008 23.8289 5.90273 25.135C6.42124 25.9808 8.807 29.7726 8.93145 29.9783C9.11323 30.2855 9.41048 30.4606 9.76603 30.4719H9.79562C10.1413 30.4719 10.4963 30.3005 10.8438 29.9628C11.8273 28.8127 11.6915 28.3365 11.6957 28.1364C11.7112 27.509 11.6849 24.8508 11.7075 23.797L15.5407 20.1103C16.5203 22.8013 18.6619 28.5934 18.8051 28.962C19.0437 29.5674 19.4931 29.7003 19.7397 29.7252C19.7801 29.7299 19.8214 29.7318 19.8618 29.7318C20.2324 29.7318 20.6165 29.5575 20.9312 29.2429C20.9312 29.2429 22.2889 27.8021 22.8656 27.1009C23.4433 26.4002 23.4207 25.8019 23.4095 25.5196C23.4048 25.3243 22.8609 16.4551 22.659 12.9916L28.8422 6.80828C31.0336 4.61598 30.6851 1.9743 29.8712 1.16182C29.512 0.800673 28.7845 0.527402 27.8959 0.527373Z" fill="black"/>
</svg>
