<svg width="33" height="35" viewBox="0 0 33 35" fill="none" xmlns="http://www.w3.org/2000/svg">
<path d="M17.9018 26.6553H3.76518C2.89811 26.6553 2.19482 27.2154 2.19482 27.9063V27.943C2.19482 28.6339 2.89783 29.1935 3.76518 29.1935H17.9018C18.7694 29.1935 19.4727 28.6339 19.4727 27.943V27.9063C19.4726 27.2154 18.7693 26.6553 17.9018 26.6553Z" fill="black"/>
<path d="M5.69162 19.4043C5.44252 19.4043 5.24072 19.6063 5.24072 19.8554C5.24072 20.105 5.44252 20.307 5.69162 20.307C5.9412 20.307 6.14348 20.105 6.14348 19.8554C6.14355 19.6063 5.9412 19.4043 5.69162 19.4043Z" fill="black"/>
<path d="M9.07672 19.4043C8.82734 19.4043 8.625 19.6063 8.625 19.8554C8.625 20.105 8.82734 20.307 9.07672 20.307C9.32575 20.307 9.52782 20.105 9.52782 19.8554C9.52782 19.6063 9.32575 19.4043 9.07672 19.4043Z" fill="black"/>
<path d="M7.497 18.0508C7.2477 18.0508 7.0459 18.2523 7.0459 18.5019C7.0459 18.7515 7.2477 18.9535 7.497 18.9535C7.7461 18.9535 7.9481 18.7515 7.9481 18.5019C7.9481 18.2523 7.7461 18.0508 7.497 18.0508Z" fill="black"/>
<path d="M9.979 17.9374C9.979 18.1865 10.1811 18.3881 10.4302 18.3881C10.6795 18.3881 10.8816 18.1865 10.8816 17.9374C10.8816 17.6879 10.6795 17.4863 10.4302 17.4863C10.1811 17.4864 9.979 17.6879 9.979 17.9374Z" fill="black"/>
<path d="M12.1227 20.4193C12.3725 20.4193 12.5743 20.2173 12.5743 19.9677C12.5743 19.7186 12.3725 19.5166 12.1227 19.5166C11.8737 19.5166 11.6714 19.7186 11.6714 19.9677C11.6713 20.2173 11.8736 20.4193 12.1227 20.4193Z" fill="black"/>
<path d="M13.5898 18.9482C13.8389 18.9482 14.0407 18.7457 14.0407 18.4961C14.0407 18.247 13.8389 18.0449 13.5898 18.0449C13.3405 18.0449 13.1382 18.247 13.1382 18.4961C13.1382 18.7457 13.3405 18.9482 13.5898 18.9482Z" fill="black"/>
<path d="M15.8459 20.4193C16.095 20.4193 16.2973 20.2173 16.2973 19.9677C16.2973 19.7186 16.095 19.5166 15.8459 19.5166C15.5971 19.5166 15.3945 19.7186 15.3945 19.9677C15.3945 20.2173 15.5971 20.4193 15.8459 20.4193Z" fill="black"/>
<path d="M19.6154 24.9648C19.6637 24.9509 19.7192 24.9416 19.795 24.9416C20.106 24.9416 20.3584 24.6894 20.3584 24.3778C20.3584 24.0662 20.106 23.8136 19.7947 23.8136C19.596 23.8136 19.4076 23.844 19.2373 23.9004C19.0885 23.9499 18.9542 24.0186 18.8379 24.0962C18.6341 24.2321 18.4827 24.3897 18.3571 24.5317C18.2627 24.6387 18.1819 24.7385 18.1078 24.8222C17.9977 24.9493 17.9034 25.0371 17.8192 25.0878C17.7765 25.1126 17.7362 25.1312 17.6884 25.1446C17.6409 25.158 17.5846 25.1673 17.5096 25.1673C17.4225 25.1673 17.3608 25.1554 17.3078 25.1379C17.2616 25.1229 17.2207 25.1023 17.1769 25.0733C17.1006 25.0237 17.0157 24.9421 16.918 24.831C16.8448 24.7483 16.7648 24.6496 16.6715 24.5421C16.5317 24.3839 16.3604 24.2031 16.1183 24.0564C15.9979 23.9829 15.8605 23.9209 15.7093 23.8781C15.5587 23.8357 15.3954 23.8135 15.2246 23.8135C15.026 23.8135 14.8379 23.8434 14.6674 23.9003C14.5183 23.9499 14.3844 24.0186 14.2682 24.0961C14.0636 24.232 13.9127 24.3896 13.7873 24.5317C13.6925 24.6387 13.6122 24.7384 13.5377 24.8221C13.4269 24.9493 13.3339 25.0371 13.2494 25.0877C13.2065 25.1125 13.1662 25.1311 13.1187 25.1445C13.0712 25.158 13.0146 25.1673 12.9396 25.1673C12.8523 25.1673 12.7908 25.1554 12.7381 25.1378C12.6916 25.1223 12.6507 25.1017 12.6068 25.0733C12.5312 25.0237 12.4464 24.942 12.3485 24.8309C12.2748 24.7482 12.1952 24.6495 12.102 24.5431C11.9623 24.3839 11.7904 24.2031 11.5491 24.0564C11.4284 23.9829 11.2913 23.9209 11.1399 23.8781C10.9892 23.8357 10.8257 23.8129 10.6552 23.8135C10.4566 23.8129 10.2682 23.8434 10.0982 23.9003C9.94942 23.9493 9.8153 24.0181 9.69854 24.0961C9.4947 24.232 9.34356 24.3891 9.21743 24.5317C9.12337 24.6387 9.04325 24.7384 8.96908 24.8221C8.85827 24.9493 8.76421 25.0371 8.68026 25.0877C8.63788 25.1125 8.59762 25.1311 8.54983 25.1445C8.5015 25.158 8.44545 25.1673 8.37053 25.1673C8.28316 25.1673 8.22171 25.1554 8.16873 25.1378C8.12272 25.1223 8.08164 25.1017 8.0383 25.0727C7.96201 25.0237 7.87752 24.942 7.77936 24.8309C7.70566 24.7477 7.62609 24.649 7.53285 24.5431C7.39306 24.3839 7.22127 24.2031 6.97941 24.0564C6.85951 23.9829 6.72184 23.9209 6.57117 23.8781C6.42003 23.8357 6.25679 23.8129 6.08596 23.8135C5.8873 23.8129 5.69945 23.8434 5.52869 23.9003C5.37987 23.9493 5.2463 24.0181 5.12975 24.0956C4.92535 24.2321 4.77476 24.3891 4.64843 24.5317C4.55409 24.6387 4.47377 24.7385 4.40015 24.8222C4.28927 24.9493 4.19555 25.0371 4.11126 25.0878C4.0686 25.1126 4.02827 25.1312 3.98049 25.1446C3.93243 25.158 3.87665 25.1668 3.80173 25.1673C3.71416 25.1668 3.65291 25.1554 3.59966 25.1379C3.55372 25.1224 3.51257 25.1018 3.46916 25.0728C3.39314 25.0232 3.30797 24.9426 3.21076 24.831C3.13714 24.7478 3.05702 24.6491 2.96378 24.5426C2.82426 24.384 2.6522 24.2031 2.41089 24.0564C2.29071 23.9829 2.15331 23.9209 2.0021 23.8781C1.8515 23.8357 1.68792 23.8129 1.51688 23.8135C1.20578 23.8135 0.953125 24.0661 0.953125 24.3777C0.953125 24.6893 1.20578 24.9415 1.51688 24.9415C1.60479 24.9415 1.66625 24.9539 1.71868 24.9709C1.76517 24.9869 1.80577 25.0072 1.84966 25.0361C1.9254 25.0857 2.01017 25.1663 2.10833 25.2779C2.18147 25.3606 2.26159 25.4598 2.35456 25.5663C2.49463 25.725 2.66614 25.9058 2.90752 26.053C3.0279 26.1259 3.16564 26.1879 3.31645 26.2303C3.46711 26.2731 3.63042 26.2953 3.80166 26.2953C3.99983 26.2959 4.18789 26.2654 4.35845 26.2091C4.5072 26.1589 4.64132 26.0907 4.75739 26.0132C4.96172 25.8773 5.11286 25.7187 5.23892 25.577C5.33298 25.4701 5.41357 25.3708 5.48747 25.2861C5.59835 25.1596 5.69159 25.0716 5.77608 25.021C5.81867 24.9962 5.85873 24.9776 5.90706 24.9642C5.95464 24.9508 6.01042 24.9414 6.08616 24.9414C6.17318 24.9414 6.23478 24.9539 6.28769 24.9709C6.33362 24.9869 6.37471 25.0071 6.41839 25.036C6.49468 25.0856 6.57938 25.1662 6.67706 25.2779C6.75021 25.3605 6.83025 25.4597 6.92356 25.5662C7.06363 25.7249 7.23515 25.9057 7.47673 26.0529C7.59718 26.1264 7.73458 26.1878 7.88524 26.2302C8.03639 26.2731 8.1997 26.2953 8.37046 26.2953C8.56863 26.2958 8.75724 26.2653 8.92725 26.209C9.07661 26.1588 9.21039 26.0906 9.32667 26.0131C9.531 25.8772 9.68221 25.7186 9.80751 25.577C9.90232 25.47 9.98271 25.3708 10.0569 25.286C10.1678 25.1595 10.2612 25.0716 10.3455 25.0209C10.3879 24.9962 10.4284 24.9776 10.4763 24.9641C10.5238 24.9507 10.5799 24.9413 10.6555 24.9413C10.7426 24.9413 10.8041 24.9538 10.8565 24.9708C10.903 24.9868 10.9441 25.007 10.9878 25.036C11.0635 25.0855 11.1484 25.1661 11.2463 25.2778C11.3198 25.3605 11.3999 25.4596 11.4928 25.5662C11.6328 25.7248 11.8044 25.9056 12.046 26.0529C12.1664 26.1263 12.3039 26.1877 12.4547 26.2301C12.6059 26.273 12.7689 26.2952 12.9399 26.2952C13.1381 26.2958 13.3264 26.2653 13.4965 26.2089C13.6458 26.1588 13.7797 26.0905 13.8962 26.013C14.1003 25.8771 14.2518 25.7185 14.3771 25.5769C14.4714 25.47 14.552 25.3707 14.6259 25.2859C14.7365 25.1594 14.8306 25.0715 14.915 25.0209C14.9572 24.9961 14.9977 24.9775 15.0455 24.964C15.0935 24.9506 15.1494 24.9413 15.2248 24.9413C15.3119 24.9413 15.3731 24.9537 15.4263 24.9707C15.4723 24.9867 15.5137 25.007 15.5568 25.0359C15.6333 25.0854 15.7177 25.166 15.816 25.2777C15.8896 25.3604 15.9692 25.4601 16.0629 25.5661C16.2025 25.7252 16.3742 25.9056 16.6156 26.0528C16.7359 26.1262 16.8734 26.1877 17.0246 26.2301C17.1754 26.2729 17.339 26.2957 17.5098 26.2957C17.7082 26.2957 17.8968 26.2652 18.0663 26.2089C18.2154 26.1592 18.3497 26.0905 18.466 26.013C18.6704 25.8771 18.8217 25.7185 18.9471 25.5768C19.0412 25.4699 19.122 25.3706 19.1956 25.2859C19.3065 25.1593 19.4002 25.0714 19.4845 25.0208C19.5271 24.9963 19.5671 24.9777 19.6154 24.9648Z" fill="black"/>
<path d="M32.3192 8.22329H27.2852L28.3417 3.36499L32.0405 1.21741L31.3338 0L27.0976 2.45964L25.8445 8.22329H14.5453L15.1352 15.9072C13.7992 15.4002 12.2903 15.1067 10.692 15.1067C8.20396 15.1078 5.93313 15.8147 4.19146 16.9406C3.3205 17.5044 2.58058 18.1741 2.01627 18.9239C1.57959 19.5042 1.24941 20.1346 1.05363 20.7975H1.01412L0.915684 21.385C0.912813 21.4031 0.910557 21.4139 0.909258 21.4197L0.908711 21.4227C0.906182 21.4289 0.900713 21.4444 0.892715 21.4713C0.884649 21.4977 0.875352 21.5338 0.869199 21.5684C0.859424 21.6206 0.854981 21.6676 0.85293 21.7095C0.850606 21.7519 0.849785 21.7917 0.849785 21.8382C0.850332 22.0639 0.881026 22.2856 0.956016 22.498C1.0118 22.6567 1.09369 22.8091 1.20122 22.9429C1.36139 23.1455 1.57863 23.301 1.81017 23.393C2.04272 23.4865 2.2869 23.5237 2.53314 23.5237H18.8503C19.0694 23.5237 19.2862 23.4943 19.4954 23.4224C19.6518 23.3681 19.8037 23.2891 19.9385 23.1842C20.1421 23.0271 20.3012 22.8111 20.3971 22.577C20.494 22.3413 20.5333 22.0918 20.5333 21.838C20.533 21.7724 20.5323 21.7202 20.5266 21.6556C20.5222 21.6081 20.5119 21.5476 20.4985 21.4974C20.4881 21.4597 20.4786 21.4339 20.4757 21.4246L20.4749 21.4221C20.4742 21.4189 20.4716 21.4091 20.4677 21.3848V21.3853C20.3207 20.5064 19.9311 19.6729 19.3679 18.9237C18.6785 18.0096 17.7303 17.2128 16.5994 16.5844L16.0657 9.63115H30.7991L29.1873 30.6204H20.1308C19.97 30.4417 19.7652 30.2897 19.5303 30.1905C19.2872 30.0867 19.0187 30.0381 18.7418 30.0386H2.646C2.31787 30.0377 2.00062 30.1068 1.72574 30.2531C1.51978 30.3616 1.34204 30.5109 1.20252 30.6804C0.992246 30.9352 0.864824 31.2271 0.787305 31.5232C0.710332 31.8203 0.680938 32.1258 0.680664 32.4348V32.6038C0.680391 33.2631 0.950137 33.8667 1.38265 34.2982C1.81386 34.7307 2.4174 35.0004 3.0768 34.9999H18.3071C18.9664 35.0005 19.5697 34.7307 20.0011 34.2982C20.4337 33.8667 20.7034 33.2632 20.7031 32.6038V32.4348C20.7031 32.2984 20.6972 32.1625 20.6845 32.0281H30.4909L32.3192 8.22329ZM16.4275 18.1219C17.1761 18.6061 17.7925 19.1719 18.2426 19.7703C18.6929 20.3691 18.9755 20.997 19.0792 21.6176V21.6182C19.0913 21.6905 19.1047 21.7525 19.12 21.8068C19.122 21.8125 19.1239 21.8181 19.1252 21.8238C19.1252 21.829 19.1257 21.8321 19.1257 21.8383C19.1257 21.9344 19.1118 21.9954 19.1004 22.0279C19.0914 22.0527 19.0847 22.0616 19.0813 22.0657C19.0756 22.0718 19.0767 22.0739 19.0464 22.0879C19.017 22.0998 18.9535 22.1163 18.8504 22.1163H2.53307C2.44106 22.1163 2.3809 22.1034 2.34809 22.0915C2.323 22.0832 2.31343 22.0765 2.30878 22.0729C2.30283 22.0667 2.30051 22.0683 2.28731 22.0393C2.27699 22.0151 2.2638 21.9644 2.25942 21.8863L2.30434 21.6177C2.40797 20.9971 2.69063 20.3692 3.14099 19.7704C3.81528 18.8722 4.8674 18.0502 6.1719 17.4616C7.47593 16.872 9.02769 16.5139 10.692 16.5144C12.9107 16.5133 14.9306 17.152 16.4275 18.1219ZM19.2952 32.6039C19.2949 32.8788 19.1857 33.1217 19.0058 33.3026C18.8247 33.4829 18.5819 33.5919 18.3069 33.5925H3.07666C2.80124 33.5919 2.55891 33.4829 2.37803 33.3026C2.19797 33.1217 2.08866 32.8789 2.08839 32.6039V32.435C2.08839 32.2422 2.10596 32.069 2.13699 31.9296C2.16051 31.8252 2.191 31.7399 2.22326 31.6774C2.24726 31.6299 2.2718 31.5952 2.29483 31.5689C2.33045 31.5291 2.36046 31.5074 2.40852 31.4863C2.45657 31.4655 2.52869 31.447 2.64593 31.4465H18.7417C18.8817 31.447 18.9548 31.4723 19.0032 31.4976C19.0396 31.5178 19.0667 31.5389 19.0983 31.5766C19.1437 31.6314 19.1964 31.7291 19.2344 31.8779C19.2732 32.0247 19.2957 32.2179 19.2951 32.435L19.2952 32.6039Z" fill="black"/>
</svg>
