<svg width="33" height="33" viewBox="0 0 33 33" fill="none" xmlns="http://www.w3.org/2000/svg">
<path fill-rule="evenodd" clip-rule="evenodd" d="M3.37516 9.63693V10.6663V15.0413C3.37516 14.2359 2.72224 13.583 1.91683 13.583C1.11142 13.583 0.458496 14.2359 0.458496 15.0413V17.958C0.458496 18.7634 1.11142 19.4163 1.91683 19.4163C2.72224 19.4163 3.37516 18.7634 3.37516 17.958V19.4163V22.333V25.0782C3.37516 26.3971 3.9288 27.623 4.8335 28.4687V31.083C4.8335 31.8884 5.48642 32.5413 6.29183 32.5413H7.75016C8.55557 32.5413 9.2085 31.8884 9.2085 31.083V29.6247H23.7918V31.083C23.7918 31.8884 24.4447 32.5413 25.2502 32.5413H26.7085C27.5139 32.5413 28.1668 31.8884 28.1668 31.083V28.4687C29.0716 27.623 29.6252 26.3971 29.6252 25.0782V22.333V19.4163V17.958C29.6252 18.7634 30.2781 19.4163 31.0835 19.4163C31.8889 19.4163 32.5418 18.7634 32.5418 17.958V15.0413C32.5418 14.2359 31.8889 13.583 31.0835 13.583C30.2781 13.583 29.6252 14.2359 29.6252 15.0413V10.6663V9.63693C29.6252 7.74775 29.2632 6.14946 28.5193 4.83436C27.7687 3.50738 26.6853 2.5687 25.4126 1.91927C22.9552 0.665295 19.7108 0.458008 16.5002 0.458008C13.2894 0.458008 10.0451 0.665295 7.58772 1.91927C6.31507 2.5687 5.23169 3.50738 4.48102 4.83436C3.73706 6.14946 3.37516 7.74775 3.37516 9.63693ZM25.2502 26.708C25.9782 26.708 26.7085 26.0579 26.7085 25.0782V22.333V19.4163C26.7085 18.6109 26.0556 17.958 25.2502 17.958H7.75016C6.94475 17.958 6.29183 18.6109 6.29183 19.4163V22.333V25.0782C6.29183 26.0579 7.02216 26.708 7.75016 26.708H25.2502ZM25.2502 9.20801C26.0556 9.20801 26.7085 9.86093 26.7085 10.6663V15.2903C26.2523 15.1291 25.7615 15.0413 25.2502 15.0413H7.75016C7.23881 15.0413 6.74797 15.1291 6.29183 15.2903V10.6663C6.29183 9.86093 6.94475 9.20801 7.75016 9.20801H25.2502ZM25.9806 6.27046C25.9974 6.30009 26.014 6.33018 26.0304 6.36071C25.7772 6.31514 25.5165 6.29134 25.2502 6.29134H7.75016C7.48387 6.29134 7.22315 6.31513 6.96998 6.3607C6.98632 6.33018 7.00287 6.30009 7.01963 6.27046C7.44969 5.51024 8.07483 4.94517 8.91345 4.51723C10.6786 3.61651 13.2676 3.37467 16.5002 3.37467C19.7327 3.37467 22.3218 3.61651 24.0868 4.51723C24.9255 4.94517 25.5506 5.51024 25.9806 6.27046ZM7.75016 21.6038C7.75016 20.3958 8.72954 19.4163 9.93766 19.4163C11.1458 19.4163 12.1252 20.3958 12.1252 21.6038C12.1252 22.8119 11.1458 23.7913 9.93766 23.7913C8.72954 23.7913 7.75016 22.8119 7.75016 21.6038ZM23.0627 19.4163C21.8546 19.4163 20.8752 20.3958 20.8752 21.6038C20.8752 22.8119 21.8546 23.7913 23.0627 23.7913C24.2707 23.7913 25.2502 22.8119 25.2502 21.6038C25.2502 20.3958 24.2707 19.4163 23.0627 19.4163Z" fill="black"/>
</svg>
