<svg width="31" height="31" viewBox="0 0 31 31" fill="none" xmlns="http://www.w3.org/2000/svg">
<path d="M18.5319 0.1875C18.7635 0.187507 18.989 0.261008 19.1762 0.397418C19.3633 0.533828 19.5023 0.726106 19.5732 0.946563L20.7763 4.685C21.2816 4.93219 21.765 5.21 22.2266 5.52281L26.0678 4.69594C26.2943 4.64758 26.5303 4.67236 26.7418 4.76671C26.9533 4.86106 27.1294 5.02011 27.2447 5.22094L30.2766 10.4688C30.3924 10.6695 30.4414 10.9018 30.4166 11.1322C30.3919 11.3625 30.2946 11.5791 30.1388 11.7506L27.5028 14.66C27.5412 15.2179 27.5412 15.7777 27.5028 16.3356L30.1388 19.2494C30.2946 19.4209 30.3919 19.6375 30.4166 19.8678C30.4414 20.0982 30.3924 20.3305 30.2766 20.5312L27.2447 25.7812C27.1291 25.9817 26.9528 26.1403 26.7414 26.2342C26.5299 26.3282 26.2941 26.3526 26.0678 26.3041L22.2266 25.4772C21.7672 25.7878 21.2816 26.0678 20.7785 26.315L19.5732 30.0534C19.5023 30.2739 19.3633 30.4662 19.1762 30.6026C18.989 30.739 18.7635 30.8125 18.5319 30.8125H12.4681C12.2366 30.8125 12.011 30.739 11.8239 30.6026C11.6368 30.4662 11.4978 30.2739 11.4269 30.0534L10.226 26.3172C9.722 26.0708 9.23592 25.7893 8.77127 25.475L4.93221 26.3041C4.70573 26.3524 4.46974 26.3276 4.25824 26.2333C4.04675 26.1389 3.87066 25.9799 3.75534 25.7791L0.723461 20.5312C0.607686 20.3305 0.558648 20.0982 0.583416 19.8678C0.608185 19.6375 0.70548 19.4209 0.861273 19.2494L3.49721 16.3356C3.45903 15.7792 3.45903 15.2208 3.49721 14.6644L0.861273 11.7506C0.70548 11.5791 0.608185 11.3625 0.583416 11.1322C0.558648 10.9018 0.607686 10.6695 0.723461 10.4688L3.75534 5.21875C3.87098 5.01832 4.0472 4.85973 4.25867 4.76578C4.47015 4.67184 4.70596 4.64738 4.93221 4.69594L8.77127 5.525C9.23502 5.21219 9.72065 4.93 10.226 4.68281L11.4291 0.946563C11.4997 0.726816 11.6381 0.535047 11.8243 0.398703C12.0105 0.262359 12.2351 0.188431 12.466 0.1875H18.5297H18.5319ZM17.7313 2.375H13.2688L12.0263 6.24031L11.1885 6.64937C10.7766 6.85093 10.379 7.08042 9.99846 7.33625L9.22409 7.86125L5.25159 7.00375L3.02034 10.8712L5.74377 13.8856L5.67815 14.8131C5.64672 15.2705 5.64672 15.7295 5.67815 16.1869L5.74377 17.1144L3.01596 20.1287L5.2494 23.9963L9.2219 23.1409L9.99627 23.6638C10.3768 23.9196 10.7744 24.1491 11.1863 24.3506L12.0241 24.7597L13.2688 28.625H17.7356L18.9825 24.7575L19.8181 24.3506C20.2296 24.1495 20.6265 23.92 21.006 23.6638L21.7781 23.1409L25.7528 23.9963L27.9841 20.1287L25.2585 17.1144L25.3241 16.1869C25.3556 15.7288 25.3556 15.269 25.3241 14.8109L25.2585 13.8834L27.9863 10.8712L25.7528 7.00375L21.7781 7.85687L21.006 7.33625C20.6265 7.07991 20.2296 6.85039 19.8181 6.64937L18.9825 6.2425L17.7335 2.375H17.7313ZM15.5 8.9375C17.2405 8.9375 18.9097 9.6289 20.1404 10.8596C21.3711 12.0903 22.0625 13.7595 22.0625 15.5C22.0625 17.2405 21.3711 18.9097 20.1404 20.1404C18.9097 21.3711 17.2405 22.0625 15.5 22.0625C13.7595 22.0625 12.0903 21.3711 10.8596 20.1404C9.62893 18.9097 8.93752 17.2405 8.93752 15.5C8.93752 13.7595 9.62893 12.0903 10.8596 10.8596C12.0903 9.6289 13.7595 8.9375 15.5 8.9375ZM15.5 11.125C14.3397 11.125 13.2269 11.5859 12.4064 12.4064C11.586 13.2269 11.125 14.3397 11.125 15.5C11.125 16.6603 11.586 17.7731 12.4064 18.5936C13.2269 19.4141 14.3397 19.875 15.5 19.875C16.6603 19.875 17.7731 19.4141 18.5936 18.5936C19.4141 17.7731 19.875 16.6603 19.875 15.5C19.875 14.3397 19.4141 13.2269 18.5936 12.4064C17.7731 11.5859 16.6603 11.125 15.5 11.125Z" fill="black"/>
</svg>
