<svg width="21" height="33" viewBox="0 0 21 33" fill="none" xmlns="http://www.w3.org/2000/svg">
<path d="M14.875 6.29199C14.875 5.13167 14.4141 4.01887 13.5936 3.1984C12.7731 2.37793 11.6603 1.91699 10.5 1.91699C9.33968 1.91699 8.22688 2.37793 7.40641 3.1984C6.58594 4.01887 6.125 5.13167 6.125 6.29199M14.875 6.29199H19.25M14.875 6.29199C14.875 7.60887 14.2931 8.79012 13.3729 9.5922M6.125 6.29199H1.75M6.125 6.29199C6.125 7.60887 6.70687 8.79012 7.62708 9.5922M13.3729 9.5922C17.9973 10.9353 19.25 15.4912 19.25 17.9587V25.2503C19.25 26.0239 18.9427 26.7657 18.3957 27.3127C17.8487 27.8597 17.1069 28.167 16.3333 28.167H13.4167M13.3729 9.5922C12.5772 10.2868 11.5563 10.6688 10.5 10.667C9.44375 10.6688 8.42281 10.2868 7.62708 9.5922M7.62708 9.5922C3.00271 10.9353 1.75 15.4912 1.75 17.9587V25.2503C1.75 26.0239 2.05729 26.7657 2.60427 27.3127C3.15125 27.8597 3.89312 28.167 4.66667 28.167H7.58333M13.4167 28.167C13.4167 28.9405 13.1094 29.6824 12.5624 30.2294C12.0154 30.7764 11.2735 31.0837 10.5 31.0837C9.72645 31.0837 8.98459 30.7764 8.43761 30.2294C7.89062 29.6824 7.58333 28.9405 7.58333 28.167M13.4167 28.167V20.8753C13.4167 20.1018 13.1094 19.3599 12.5624 18.8129C12.0154 18.2659 11.2735 17.9587 10.5 17.9587C9.72645 17.9587 8.98459 18.2659 8.43761 18.8129C7.89062 19.3599 7.58333 20.1018 7.58333 20.8753V28.167" stroke="black" stroke-width="2.91667" stroke-linecap="round" stroke-linejoin="round"/>
</svg>
