<svg width="35" height="35" viewBox="0 0 35 35" fill="none" xmlns="http://www.w3.org/2000/svg">
<path d="M5.104 32.0837V7.29199C5.104 4.37533 7.05817 2.91699 9.479 2.91699H21.1457C23.5665 2.91699 25.5207 4.37533 25.5207 7.29199V32.0837H5.104Z" stroke="#292D32" stroke-width="2.1875" stroke-linecap="round" stroke-linejoin="round"/>
<path d="M2.9165 32.083H27.7082" stroke="#292D32" stroke-width="2.1875" stroke-linecap="round" stroke-linejoin="round"/>
<path d="M12.2353 14.5836H18.404C19.9207 14.5836 21.1603 13.8544 21.1603 11.8273V10.0336C21.1603 8.00651 19.9207 7.27734 18.404 7.27734H12.2353C10.7186 7.27734 9.479 8.00651 9.479 10.0336V11.8273C9.479 13.8544 10.7186 14.5836 12.2353 14.5836Z" stroke="#292D32" stroke-width="2.1875" stroke-linecap="round" stroke-linejoin="round"/>
<path d="M9.479 18.958H13.854" stroke="#292D32" stroke-width="2.1875" stroke-linecap="round" stroke-linejoin="round"/>
<path d="M25.521 23.3479L32.0835 23.3333V14.5833L29.1668 13.125" stroke="#292D32" stroke-width="2.1875" stroke-linecap="round" stroke-linejoin="round"/>
</svg>
