<svg width="35" height="35" viewBox="0 0 35 35" fill="none" xmlns="http://www.w3.org/2000/svg">
<path d="M26.2084 29.7497H8.79231C7.89914 29.7882 7.01178 29.5883 6.22132 29.1707C5.43086 28.7531 4.76573 28.1327 4.2941 27.3734C3.82247 26.6139 3.56131 25.7425 3.53744 24.8489C3.51358 23.9551 3.72788 23.0713 4.15831 22.2877L12.8663 7.1537C13.349 6.35681 14.0292 5.6979 14.8409 5.24057C15.6527 4.78325 16.5685 4.54297 17.5002 4.54297C18.4319 4.54297 19.348 4.78325 20.1597 5.24057C20.9714 5.6979 21.6517 6.35681 22.1344 7.1537L30.8424 22.2877C31.2727 23.0713 31.4871 23.9551 31.4631 24.8489C31.4393 25.7425 31.1782 26.6139 30.7066 27.3734C30.2349 28.1327 29.5696 28.7531 28.7792 29.1707C27.9888 29.5883 27.1014 29.7882 26.2084 29.7497Z" stroke="black" stroke-width="2.1" stroke-linecap="round" stroke-linejoin="round"/>
<path d="M15.9331 24.0099C15.9331 23.8029 15.9741 23.5978 16.0538 23.4067C16.1334 23.2154 16.2502 23.042 16.3973 22.8962C16.5443 22.7505 16.7189 22.6353 16.9107 22.5573C17.1027 22.4793 17.3079 22.4401 17.5151 22.4419C17.8206 22.4475 18.1177 22.5429 18.3692 22.7163C18.6207 22.8898 18.8156 23.1337 18.9294 23.4172C19.0431 23.7008 19.0706 24.0116 19.0088 24.3108C18.9467 24.61 18.7979 24.8842 18.5809 25.0994C18.3639 25.3145 18.0883 25.4608 17.7885 25.5201C17.4888 25.5795 17.1783 25.5491 16.8957 25.4328C16.6131 25.3166 16.3712 25.1196 16.1999 24.8665C16.0287 24.6135 15.9359 24.3156 15.9331 24.0099ZM16.4371 20.1879L16.2411 12.88C16.2225 12.7043 16.241 12.5267 16.2956 12.3586C16.35 12.1906 16.4392 12.0359 16.5574 11.9046C16.6755 11.7732 16.82 11.6682 16.9813 11.5963C17.1427 11.5245 17.3174 11.4873 17.4941 11.4873C17.6708 11.4873 17.8455 11.5245 18.0068 11.5963C18.1682 11.6682 18.3125 11.7732 18.4307 11.9046C18.5489 12.0359 18.6382 12.1906 18.6926 12.3586C18.7471 12.5267 18.7657 12.7043 18.7471 12.88L18.5651 20.1879C18.5651 20.47 18.453 20.7408 18.2535 20.9403C18.0538 21.1398 17.7832 21.2519 17.5011 21.2519C17.2189 21.2519 16.9482 21.1398 16.7487 20.9403C16.5492 20.7408 16.4371 20.47 16.4371 20.1879Z" fill="black"/>
</svg>
